<?xml version="1.0" standalone="no"?>
<!DOCTYPE svg PUBLIC "-//W3C//DTD SVG 20010904//EN"
 "http://www.w3.org/TR/2001/REC-SVG-20010904/DTD/svg10.dtd">
<svg version="1.0" xmlns="http://www.w3.org/2000/svg"
 width="860.000000pt" height="1045.000000pt" viewBox="0 0 860.000000 1045.000000"
 preserveAspectRatio="xMidYMid meet">
<metadata>
Created by potrace 1.16, written by Peter Selinger 2001-2019
</metadata>
<g transform="translate(0.000000,1045.000000) scale(0.100000,-0.100000)"
fill="#000000" stroke="none">
<path d="M3865 10026 c-86 -14 -214 -53 -305 -94 -147 -65 -309 -199 -395
-328 -22 -32 -42 -63 -46 -68 -4 -4 -35 11 -69 34 -91 62 -231 125 -345 156
-86 23 -121 27 -250 28 -172 1 -266 -15 -408 -70 -349 -134 -589 -422 -653
-784 -12 -73 -14 -250 -13 -1209 l1 -1123 -94 -50 c-450 -241 -802 -734 -921
-1293 -36 -171 -50 -304 -50 -505 0 -268 34 -501 114 -790 77 -273 138 -417
324 -765 18 -33 58 -109 90 -170 32 -60 79 -150 105 -200 27 -49 150 -283 275
-520 293 -557 347 -639 584 -876 202 -202 369 -324 616 -447 238 -119 468
-188 760 -229 120 -17 234 -18 1510 -18 1513 0 1477 -1 1750 61 903 206 1603
916 1798 1824 54 251 52 118 52 2920 0 2453 -1 2612 -18 2723 -66 436 -231
712 -517 869 -147 81 -316 118 -532 118 -223 0 -388 -43 -539 -138 -35 -22
-64 -40 -65 -39 -1 1 -20 47 -43 101 -104 250 -276 435 -489 526 -329 140
-795 104 -1086 -82 l-49 -32 -16 21 c-9 12 -41 54 -71 93 -110 145 -330 283
-535 336 -123 32 -343 41 -470 20z m346 -560 c132 -42 233 -125 292 -242 62
-123 60 -108 66 -644 6 -478 7 -497 27 -540 89 -188 373 -199 474 -20 l25 45
6 380 c6 375 7 381 32 461 69 210 207 302 470 312 188 7 290 -18 372 -89 52
-46 102 -126 131 -212 48 -138 56 -231 63 -687 6 -414 7 -426 28 -466 28 -53
91 -107 142 -122 21 -7 64 -12 96 -12 77 0 127 16 175 58 55 47 82 102 87 182
21 336 43 462 104 582 36 71 117 156 178 188 58 29 160 50 252 50 340 1 498
-195 528 -657 15 -212 15 -4849 1 -5057 -57 -833 -633 -1509 -1440 -1691 -203
-46 -227 -46 -1700 -42 l-1395 3 -117 26 c-414 93 -768 297 -1026 591 -158
181 -208 269 -647 1147 -338 677 -420 848 -453 950 -91 284 -123 467 -129 745
-6 232 9 357 62 540 111 382 397 690 752 810 105 36 181 94 217 166 l26 53 0
1250 c0 1362 -1 1332 56 1437 85 156 283 263 484 261 192 -1 389 -112 464
-260 54 -107 58 -135 63 -472 6 -362 9 -379 91 -451 133 -117 340 -72 416 91
20 43 21 65 26 500 6 438 7 457 28 514 66 177 193 292 366 332 74 17 240 12
307 -10z"/>
</g>
</svg>
